<svg width="97" height="21" viewBox="0 0 97 21" fill="none" xmlns="http://www.w3.org/2000/svg">
<path d="M0.52 20V19.74L2.548 19.454V2.19L0.702 1.852V1.592H7.722L13.78 15.476L13.338 14.956H14.248L13.936 15.476L17.836 1.592H24.7V1.852L23.296 2.138V19.454L24.7 19.74V20H16.51V19.74L18.148 19.454V4.504H17.758L13.104 20H10.166L3.354 5.05H2.938V7.728C2.938 8.47333 2.99 9.33133 3.094 10.302C3.21533 11.2553 3.38867 12.2433 3.614 13.266C3.83933 14.2713 4.134 15.2333 4.498 16.152C4.87933 17.0533 5.33 17.8247 5.85 18.466C6.38733 19.1073 7.00267 19.532 7.696 19.74V20H0.52ZM33.1725 6.61C34.3512 6.61 35.3999 6.78333 36.3185 7.13C37.2372 7.45933 37.9999 7.94467 38.6065 8.586C39.2305 9.21 39.6985 9.94667 40.0105 10.796C40.3399 11.6453 40.5045 12.5813 40.5045 13.604C40.5045 14.5227 40.3485 15.3893 40.0365 16.204C39.7245 17.0187 39.2565 17.7467 38.6325 18.388C38.0085 19.012 37.2372 19.506 36.3185 19.87C35.4172 20.2167 34.3685 20.39 33.1725 20.39C31.9245 20.39 30.8412 20.2167 29.9225 19.87C29.0039 19.506 28.2325 19.012 27.6085 18.388C27.0019 17.7467 26.5512 17.0187 26.2565 16.204C25.9619 15.3893 25.8145 14.5227 25.8145 13.604C25.8145 12.5813 25.9792 11.6453 26.3085 10.796C26.6552 9.94667 27.1405 9.21 27.7645 8.586C28.4059 7.94467 29.1772 7.45933 30.0785 7.13C30.9972 6.78333 32.0285 6.61 33.1725 6.61ZM33.1725 6.896C32.6005 6.896 32.1412 7.208 31.7945 7.832C31.4652 8.43867 31.2225 9.25333 31.0665 10.276C30.9279 11.2813 30.8585 12.3907 30.8585 13.604C30.8585 14.436 30.8932 15.2507 30.9625 16.048C31.0319 16.828 31.1532 17.5213 31.3265 18.128C31.5172 18.7347 31.7599 19.22 32.0545 19.584C32.3492 19.9307 32.7219 20.104 33.1725 20.104C33.5885 20.104 33.9352 19.9307 34.2125 19.584C34.5072 19.2373 34.7412 18.7607 34.9145 18.154C35.1052 17.53 35.2439 16.828 35.3305 16.048C35.4172 15.268 35.4605 14.4533 35.4605 13.604C35.4605 12.7027 35.4172 11.8533 35.3305 11.056C35.2612 10.2413 35.1399 9.522 34.9665 8.898C34.8105 8.274 34.5852 7.78867 34.2905 7.442C33.9959 7.078 33.6232 6.896 33.1725 6.896ZM41.8838 20V19.74L43.2358 19.376V7.884H41.8318V7.598L48.1758 6.61V10.64L48.3838 10.848C48.5918 10.2933 48.8084 9.79067 49.0338 9.34C49.2591 8.872 49.4931 8.49933 49.7358 8.222C50.1344 7.66733 50.5851 7.26 51.0878 7C51.5904 6.74 52.1711 6.61 52.8298 6.61C53.2978 6.61 53.7484 6.70533 54.1818 6.896C54.6324 7.08667 55.0051 7.37267 55.2998 7.754C55.5944 8.13533 55.7418 8.62933 55.7418 9.236C55.7418 9.72133 55.6204 10.1547 55.3778 10.536C55.1351 10.9173 54.7971 11.2207 54.3638 11.446C53.9304 11.654 53.4191 11.758 52.8298 11.758C52.2924 11.758 51.8158 11.6627 51.3998 11.472C51.0011 11.2813 50.6804 11.0213 50.4378 10.692C50.2124 10.3627 50.0998 9.98133 50.0998 9.548C50.0998 9.37467 50.1171 9.21867 50.1518 9.08C50.1864 8.924 50.2211 8.78533 50.2558 8.664C50.2904 8.54267 50.3078 8.43867 50.3078 8.352C50.3078 8.23067 50.2731 8.17 50.2038 8.17C50.0651 8.17 49.9004 8.30867 49.7098 8.586C49.5364 8.846 49.3024 9.30533 49.0078 9.964C48.8691 10.2587 48.7218 10.614 48.5658 11.03C48.4271 11.446 48.2971 11.8967 48.1758 12.382V19.376L49.5278 19.74V20H41.8838ZM63.946 6.61C65.1247 6.61 66.1733 6.78333 67.092 7.13C68.0107 7.45933 68.7733 7.94467 69.38 8.586C70.004 9.21 70.472 9.94667 70.784 10.796C71.1133 11.6453 71.278 12.5813 71.278 13.604C71.278 14.5227 71.122 15.3893 70.81 16.204C70.498 17.0187 70.03 17.7467 69.406 18.388C68.782 19.012 68.0107 19.506 67.092 19.87C66.1907 20.2167 65.142 20.39 63.946 20.39C62.698 20.39 61.6147 20.2167 60.696 19.87C59.7773 19.506 59.006 19.012 58.382 18.388C57.7753 17.7467 57.3247 17.0187 57.03 16.204C56.7353 15.3893 56.588 14.5227 56.588 13.604C56.588 12.5813 56.7527 11.6453 57.082 10.796C57.4287 9.94667 57.914 9.21 58.538 8.586C59.1793 7.94467 59.9507 7.45933 60.852 7.13C61.7707 6.78333 62.802 6.61 63.946 6.61ZM63.946 6.896C63.374 6.896 62.9147 7.208 62.568 7.832C62.2387 8.43867 61.996 9.25333 61.84 10.276C61.7013 11.2813 61.632 12.3907 61.632 13.604C61.632 14.436 61.6667 15.2507 61.736 16.048C61.8053 16.828 61.9267 17.5213 62.1 18.128C62.2907 18.7347 62.5333 19.22 62.828 19.584C63.1227 19.9307 63.4953 20.104 63.946 20.104C64.362 20.104 64.7087 19.9307 64.986 19.584C65.2807 19.2373 65.5147 18.7607 65.688 18.154C65.8787 17.53 66.0173 16.828 66.104 16.048C66.1907 15.268 66.234 14.4533 66.234 13.604C66.234 12.7027 66.1907 11.8533 66.104 11.056C66.0347 10.2413 65.9133 9.522 65.74 8.898C65.584 8.274 65.3587 7.78867 65.064 7.442C64.7693 7.078 64.3967 6.896 63.946 6.896ZM78.7956 19.48L80.1476 19.74V20H72.5036V19.74L73.8556 19.48V1.904H72.4516V1.618L78.7956 0.629998V19.48ZM78.5356 12.928V12.538C79.0903 12.4513 79.6796 12.2867 80.3036 12.044C80.945 11.8013 81.621 11.5067 82.3316 11.16C82.9036 10.8827 83.389 10.6227 83.7876 10.38C84.1863 10.1373 84.4896 9.92933 84.6976 9.756C84.923 9.58267 85.0356 9.43533 85.0356 9.314C85.0356 9.21 84.923 9.12333 84.6976 9.054C84.4896 8.96733 84.221 8.88933 83.8916 8.82C83.5623 8.75067 83.207 8.664 82.8256 8.56C82.4616 8.456 82.115 8.326 81.7856 8.17C81.4563 8.014 81.1876 7.806 80.9796 7.546C80.7716 7.26867 80.6676 6.93067 80.6676 6.532C80.6676 6.13333 80.789 5.78667 81.0316 5.492C81.2743 5.19733 81.6036 4.96333 82.0196 4.79C82.453 4.61667 82.9383 4.53 83.4756 4.53C84.0996 4.53 84.6543 4.64267 85.1396 4.868C85.625 5.076 86.0063 5.37933 86.2836 5.778C86.561 6.15933 86.6996 6.61 86.6996 7.13C86.6996 7.68467 86.5436 8.18733 86.2316 8.638C85.937 9.08867 85.4863 9.53933 84.8796 9.99C84.5156 10.2673 84.0736 10.562 83.5536 10.874C83.0336 11.1687 82.4443 11.498 81.7856 11.862V12.174H84.5936C84.819 12.8327 85.027 13.4653 85.2176 14.072C85.4083 14.6787 85.5816 15.2593 85.7376 15.814C85.963 16.386 86.1796 16.9147 86.3876 17.4C86.5956 17.868 86.795 18.2753 86.9856 18.622C87.1936 18.9687 87.393 19.2113 87.5836 19.35C87.653 19.402 87.7223 19.4367 87.7916 19.454C87.861 19.454 87.9303 19.4453 87.9996 19.428V19.714C87.7223 19.87 87.445 20 87.1676 20.104C86.8903 20.208 86.5956 20.2773 86.2836 20.312C85.989 20.364 85.651 20.39 85.2696 20.39C84.559 20.39 83.9176 20.2427 83.3456 19.948C82.7736 19.636 82.271 19.1853 81.8376 18.596C81.4216 18.0067 81.0576 17.296 80.7456 16.464C80.5376 15.8227 80.3296 15.2247 80.1216 14.67C79.931 14.1153 79.7403 13.5347 79.5496 12.928H78.5356ZM92.7769 4.946C92.1703 4.946 91.6329 4.85933 91.1649 4.686C90.6969 4.51267 90.3243 4.27 90.0469 3.958C89.7869 3.646 89.6569 3.29067 89.6569 2.892C89.6569 2.49333 89.7869 2.14667 90.0469 1.852C90.3243 1.54 90.6969 1.29733 91.1649 1.124C91.6329 0.950666 92.1703 0.863998 92.7769 0.863998C93.3836 0.863998 93.9209 0.950666 94.3889 1.124C94.8569 1.29733 95.2209 1.54 95.4809 1.852C95.7583 2.14667 95.8969 2.49333 95.8969 2.892C95.8969 3.29067 95.7583 3.646 95.4809 3.958C95.2209 4.27 94.8569 4.51267 94.3889 4.686C93.9209 4.85933 93.3836 4.946 92.7769 4.946ZM89.0329 20V19.74L90.3849 19.48V7.884H88.9809V7.598L95.3249 6.61V19.48L96.6769 19.74V20H89.0329Z" fill="#2F4B4D"/>
</svg>
