<svg width="67" height="15" viewBox="0 0 67 15" fill="none" xmlns="http://www.w3.org/2000/svg">
<path d="M0.36 14V13.82L1.764 13.622V1.67L0.486 1.436V1.256H5.346L9.54 10.868L9.234 10.508H9.864L9.648 10.868L12.348 1.256H17.1V1.436L16.128 1.634V13.622L17.1 13.82V14H11.43V13.82L12.564 13.622V3.272H12.294L9.072 14H7.038L2.322 3.65H2.034V5.504C2.034 6.02 2.07 6.614 2.142 7.286C2.226 7.946 2.346 8.63 2.502 9.338C2.658 10.034 2.862 10.7 3.114 11.336C3.378 11.96 3.69 12.494 4.05 12.938C4.422 13.382 4.848 13.676 5.328 13.82V14H0.36ZM22.9656 4.73C23.7816 4.73 24.5076 4.85 25.1436 5.09C25.7796 5.318 26.3076 5.654 26.7276 6.098C27.1596 6.53 27.4836 7.04 27.6996 7.628C27.9276 8.216 28.0416 8.864 28.0416 9.572C28.0416 10.208 27.9336 10.808 27.7176 11.372C27.5016 11.936 27.1776 12.44 26.7456 12.884C26.3136 13.316 25.7796 13.658 25.1436 13.91C24.5196 14.15 23.7936 14.27 22.9656 14.27C22.1016 14.27 21.3516 14.15 20.7156 13.91C20.0796 13.658 19.5456 13.316 19.1136 12.884C18.6936 12.44 18.3816 11.936 18.1776 11.372C17.9736 10.808 17.8716 10.208 17.8716 9.572C17.8716 8.864 17.9856 8.216 18.2136 7.628C18.4536 7.04 18.7896 6.53 19.2216 6.098C19.6656 5.654 20.1996 5.318 20.8236 5.09C21.4596 4.85 22.1736 4.73 22.9656 4.73ZM22.9656 4.928C22.5696 4.928 22.2516 5.144 22.0116 5.576C21.7836 5.996 21.6156 6.56 21.5076 7.268C21.4116 7.964 21.3636 8.732 21.3636 9.572C21.3636 10.148 21.3876 10.712 21.4356 11.264C21.4836 11.804 21.5676 12.284 21.6876 12.704C21.8196 13.124 21.9876 13.46 22.1916 13.712C22.3956 13.952 22.6536 14.072 22.9656 14.072C23.2536 14.072 23.4936 13.952 23.6856 13.712C23.8896 13.472 24.0516 13.142 24.1716 12.722C24.3036 12.29 24.3996 11.804 24.4596 11.264C24.5196 10.724 24.5496 10.16 24.5496 9.572C24.5496 8.948 24.5196 8.36 24.4596 7.808C24.4116 7.244 24.3276 6.746 24.2076 6.314C24.0996 5.882 23.9436 5.546 23.7396 5.306C23.5356 5.054 23.2776 4.928 22.9656 4.928ZM28.9965 14V13.82L29.9325 13.568V5.612H28.9605V5.414L33.3525 4.73V7.52L33.4965 7.664C33.6405 7.28 33.7905 6.932 33.9465 6.62C34.1025 6.296 34.2645 6.038 34.4325 5.846C34.7085 5.462 35.0205 5.18 35.3685 5C35.7165 4.82 36.1185 4.73 36.5745 4.73C36.8985 4.73 37.2105 4.796 37.5105 4.928C37.8225 5.06 38.0805 5.258 38.2845 5.522C38.4885 5.786 38.5905 6.128 38.5905 6.548C38.5905 6.884 38.5065 7.184 38.3385 7.448C38.1705 7.712 37.9365 7.922 37.6365 8.078C37.3365 8.222 36.9825 8.294 36.5745 8.294C36.2025 8.294 35.8725 8.228 35.5845 8.096C35.3085 7.964 35.0865 7.784 34.9185 7.556C34.7625 7.328 34.6845 7.064 34.6845 6.764C34.6845 6.644 34.6965 6.536 34.7205 6.44C34.7445 6.332 34.7685 6.236 34.7925 6.152C34.8165 6.068 34.8285 5.996 34.8285 5.936C34.8285 5.852 34.8045 5.81 34.7565 5.81C34.6605 5.81 34.5465 5.906 34.4145 6.098C34.2945 6.278 34.1325 6.596 33.9285 7.052C33.8325 7.256 33.7305 7.502 33.6225 7.79C33.5265 8.078 33.4365 8.39 33.3525 8.726V13.568L34.2885 13.82V14H28.9965ZM44.2703 4.73C45.0863 4.73 45.8123 4.85 46.4483 5.09C47.0843 5.318 47.6123 5.654 48.0323 6.098C48.4643 6.53 48.7883 7.04 49.0043 7.628C49.2323 8.216 49.3463 8.864 49.3463 9.572C49.3463 10.208 49.2383 10.808 49.0223 11.372C48.8063 11.936 48.4823 12.44 48.0503 12.884C47.6183 13.316 47.0843 13.658 46.4483 13.91C45.8243 14.15 45.0983 14.27 44.2703 14.27C43.4063 14.27 42.6563 14.15 42.0203 13.91C41.3843 13.658 40.8503 13.316 40.4183 12.884C39.9983 12.44 39.6863 11.936 39.4823 11.372C39.2783 10.808 39.1763 10.208 39.1763 9.572C39.1763 8.864 39.2903 8.216 39.5183 7.628C39.7583 7.04 40.0943 6.53 40.5263 6.098C40.9703 5.654 41.5043 5.318 42.1283 5.09C42.7643 4.85 43.4783 4.73 44.2703 4.73ZM44.2703 4.928C43.8743 4.928 43.5563 5.144 43.3163 5.576C43.0883 5.996 42.9203 6.56 42.8123 7.268C42.7163 7.964 42.6683 8.732 42.6683 9.572C42.6683 10.148 42.6923 10.712 42.7403 11.264C42.7883 11.804 42.8723 12.284 42.9923 12.704C43.1243 13.124 43.2923 13.46 43.4963 13.712C43.7003 13.952 43.9583 14.072 44.2703 14.072C44.5583 14.072 44.7983 13.952 44.9903 13.712C45.1943 13.472 45.3563 13.142 45.4763 12.722C45.6083 12.29 45.7043 11.804 45.7643 11.264C45.8243 10.724 45.8543 10.16 45.8543 9.572C45.8543 8.948 45.8243 8.36 45.7643 7.808C45.7163 7.244 45.6323 6.746 45.5123 6.314C45.4043 5.882 45.2483 5.546 45.0443 5.306C44.8403 5.054 44.5823 4.928 44.2703 4.928ZM54.5508 13.64L55.4868 13.82V14H50.1948V13.82L51.1308 13.64V1.472H50.1588V1.274L54.5508 0.589999V13.64ZM54.3708 9.104V8.834C54.7548 8.774 55.1628 8.66 55.5948 8.492C56.0388 8.324 56.5068 8.12 56.9988 7.88C57.3948 7.688 57.7308 7.508 58.0068 7.34C58.2828 7.172 58.4928 7.028 58.6368 6.908C58.7928 6.788 58.8708 6.686 58.8708 6.602C58.8708 6.53 58.7928 6.47 58.6368 6.422C58.4928 6.362 58.3068 6.308 58.0788 6.26C57.8508 6.212 57.6048 6.152 57.3408 6.08C57.0888 6.008 56.8488 5.918 56.6208 5.81C56.3928 5.702 56.2068 5.558 56.0628 5.378C55.9188 5.186 55.8468 4.952 55.8468 4.676C55.8468 4.4 55.9308 4.16 56.0988 3.956C56.2668 3.752 56.4948 3.59 56.7828 3.47C57.0828 3.35 57.4188 3.29 57.7908 3.29C58.2228 3.29 58.6068 3.368 58.9428 3.524C59.2788 3.668 59.5428 3.878 59.7348 4.154C59.9268 4.418 60.0228 4.73 60.0228 5.09C60.0228 5.474 59.9148 5.822 59.6988 6.134C59.4948 6.446 59.1828 6.758 58.7628 7.07C58.5108 7.262 58.2048 7.466 57.8448 7.682C57.4848 7.886 57.0768 8.114 56.6208 8.366V8.582H58.5648C58.7208 9.038 58.8648 9.476 58.9968 9.896C59.1288 10.316 59.2488 10.718 59.3568 11.102C59.5128 11.498 59.6628 11.864 59.8068 12.2C59.9508 12.524 60.0888 12.806 60.2208 13.046C60.3648 13.286 60.5028 13.454 60.6348 13.55C60.6828 13.586 60.7308 13.61 60.7788 13.622C60.8268 13.622 60.8748 13.616 60.9228 13.604V13.802C60.7308 13.91 60.5388 14 60.3468 14.072C60.1548 14.144 59.9508 14.192 59.7348 14.216C59.5308 14.252 59.2968 14.27 59.0328 14.27C58.5408 14.27 58.0968 14.168 57.7008 13.964C57.3048 13.748 56.9568 13.436 56.6568 13.028C56.3688 12.62 56.1168 12.128 55.9008 11.552C55.7568 11.108 55.6128 10.694 55.4688 10.31C55.3368 9.926 55.2048 9.524 55.0728 9.104H54.3708ZM64.2302 3.578C63.8102 3.578 63.4382 3.518 63.1142 3.398C62.7902 3.278 62.5322 3.11 62.3402 2.894C62.1602 2.678 62.0702 2.432 62.0702 2.156C62.0702 1.88 62.1602 1.64 62.3402 1.436C62.5322 1.22 62.7902 1.052 63.1142 0.932C63.4382 0.811999 63.8102 0.751999 64.2302 0.751999C64.6502 0.751999 65.0222 0.811999 65.3462 0.932C65.6702 1.052 65.9222 1.22 66.1022 1.436C66.2942 1.64 66.3902 1.88 66.3902 2.156C66.3902 2.432 66.2942 2.678 66.1022 2.894C65.9222 3.11 65.6702 3.278 65.3462 3.398C65.0222 3.518 64.6502 3.578 64.2302 3.578ZM61.6382 14V13.82L62.5742 13.64V5.612H61.6022V5.414L65.9942 4.73V13.64L66.9302 13.82V14H61.6382Z" fill="#384357"/>
</svg>
